<?xml version="1.0" standalone="no"?>
<!DOCTYPE svg PUBLIC "-//W3C//DTD SVG 20010904//EN"
 "http://www.w3.org/TR/2001/REC-SVG-20010904/DTD/svg10.dtd">
<svg version="1.0" xmlns="http://www.w3.org/2000/svg"
 width="930.000000pt" height="610.000000pt" viewBox="0 0 930.000000 610.000000"
 preserveAspectRatio="xMidYMid meet">
<metadata>
Created by potrace 1.16, written by Peter Selinger 2001-2019
</metadata>
<g transform="translate(0.000000,610.000000) scale(0.100000,-0.100000)"
fill="#000000" stroke="none">
<path d="M6844 5603 l-1111 -437 -69 -145 -70 -146 -49 -2 c-28 -2 -78 -8
-113 -14 -53 -10 -65 -16 -73 -36 -20 -53 -7 -188 31 -309 11 -38 10 -45 -16
-98 -28 -55 -32 -59 -104 -90 -92 -39 -183 -98 -210 -137 l-21 -28 30 -58 c16
-32 42 -76 59 -98 l29 -40 -36 -72 -35 -73 -163 0 c-90 0 -163 4 -163 9 0 5 7
28 15 51 8 24 13 45 11 47 -2 2 -13 -22 -23 -54 l-20 -58 -74 -5 c-96 -7 -136
-30 -168 -94 -23 -47 -25 -59 -28 -280 -3 -127 -6 -237 -8 -244 -3 -9 -17 -10
-47 -6 -77 11 -1075 199 -1216 229 -40 8 -82 15 -92 15 -10 0 -55 -23 -100
-52 l-81 -51 -47 23 c-75 36 -98 41 -115 22 -21 -24 -51 -88 -71 -149 -9 -28
-23 -57 -31 -63 -8 -6 -12 -17 -9 -23 2 -7 -5 -18 -16 -25 -20 -12 -28 -4 -11
14 6 5 -33 10 -107 12 -151 4 -157 0 -157 -96 l0 -70 -95 -59 -95 -59 -24
-133 c-18 -95 -22 -134 -14 -139 7 -4 286 -59 622 -122 336 -63 605 -117 598
-121 -6 -3 -42 -14 -78 -24 -61 -16 -73 -16 -155 -2 -91 16 -145 12 -233 -14
-33 -10 -49 -10 -82 0 -111 33 -223 30 -301 -10 -40 -20 -43 -21 -77 -4 -58
28 -92 35 -163 36 -83 0 -138 -16 -177 -52 -26 -23 -41 -29 -94 -31 l-62 -3 0
-303 c0 -167 3 -306 8 -309 4 -2 7 133 7 301 l0 306 85 0 c104 0 114 -18 13
-23 l-73 -3 83 -2 c47 -1 82 -6 82 -12 0 -5 -9 -10 -19 -10 -26 0 -31 -19 -31
-108 0 -96 7 -122 31 -122 25 0 24 -20 -1 -27 -23 -6 -33 -46 -28 -118 l3 -50
133 -3 c77 -1 132 -7 132 -12 0 -6 9 -10 20 -10 16 0 20 -7 20 -30 0 -23 -4
-30 -20 -30 -11 0 -20 -4 -20 -10 0 -6 -69 -10 -188 -10 -174 0 -188 -1 -199
-19 -11 -18 -9 -20 14 -23 23 -2 29 -10 35 -43 13 -61 56 -140 88 -158 24 -15
62 -17 264 -17 203 0 236 -2 236 -15 0 -8 5 -15 10 -15 6 0 10 4 10 8 0 4 9 8
20 8 11 0 20 -4 20 -8 0 -14 27 -9 40 7 10 12 40 15 155 15 138 0 144 1 201
30 32 16 70 30 83 30 13 0 52 -14 88 -31 l65 -31 156 6 c86 4 176 6 200 6 116
-2 302 -3 342 -2 25 1 170 -1 323 -4 272 -5 280 -4 324 17 26 12 57 38 72 60
34 51 55 49 88 -6 46 -76 55 -77 318 -71 127 3 248 6 270 5 22 0 201 -2 398
-5 343 -4 360 -4 404 16 57 25 68 25 109 -1 32 -19 43 -20 301 -15 147 3 284
5 303 5 19 0 94 -1 166 -2 127 -2 132 -1 172 25 22 15 53 49 68 75 30 49 152
424 179 548 15 68 15 78 1 129 -9 30 -27 68 -41 84 -50 60 -160 81 -297 57
-65 -11 -99 -12 -139 -5 -69 13 -150 13 -205 -1 -37 -10 -64 -8 -144 6 -68 12
-112 14 -142 9 -24 -5 -114 -9 -200 -9 l-158 0 -2 671 -3 672 1193 468 c962
378 1191 471 1187 484 -3 8 -131 333 -283 722 -196 502 -281 708 -292 707 -8
0 -515 -196 -1126 -436z m700 -99 c9 -8 19 -27 22 -42 6 -31 7 -31 38 -92 13
-25 22 -48 19 -52 -11 -20 -36 -4 -50 32 -9 22 -20 40 -24 40 -17 0 -18 -20
-3 -55 13 -31 13 -39 2 -46 -7 -5 -15 -9 -18 -9 -6 0 -81 191 -80 206 0 6 15
16 33 22 44 14 44 14 61 -4z m-191 -156 c45 -115 46 -121 26 -125 -11 -3 -22
10 -35 41 -14 35 -22 43 -33 37 -12 -8 -11 -16 3 -52 14 -34 15 -44 4 -50 -7
-5 -15 -9 -18 -9 -7 0 -81 191 -80 208 0 27 32 9 48 -28 12 -27 21 -37 30 -32
10 7 9 17 -2 50 -14 39 -12 48 15 51 4 1 23 -41 42 -91z m-157 24 c6 -4 16
-17 22 -29 17 -30 -15 -42 -36 -12 -9 13 -18 17 -24 11 -6 -6 1 -34 19 -78 29
-71 48 -85 48 -36 0 36 26 35 38 -1 12 -36 -14 -67 -55 -67 -25 0 -32 7 -52
53 -49 110 -52 124 -31 147 18 20 51 26 71 12z m-60 -169 c17 -50 17 -53 -1
-73 -22 -25 -57 -26 -77 -2 -8 9 -29 53 -46 96 -25 61 -29 82 -20 88 22 13 24
10 58 -77 19 -49 39 -85 46 -85 20 0 18 9 -18 100 -27 68 -29 83 -17 91 15 9
39 -34 75 -138z m-168 75 c20 -25 64 -147 60 -170 -4 -30 -50 -53 -77 -39 -22
12 -71 129 -71 171 0 43 62 69 88 38z m-88 -142 c18 -82 20 -100 9 -107 -8 -5
-19 -9 -24 -9 -10 0 -115 173 -115 190 0 4 7 10 15 13 10 4 24 -12 46 -54 18
-32 34 -58 36 -55 2 2 -3 32 -12 66 -13 51 -14 65 -3 71 17 11 22 0 48 -115z
m1139 108 c38 -22 44 -34 117 -218 87 -220 86 -273 -10 -317 -70 -32 -134 -19
-169 34 -25 39 -139 335 -144 376 -3 24 1 49 11 69 32 61 136 91 195 56z
m-1319 -69 c0 -7 -6 -18 -14 -22 -11 -6 -7 -24 19 -93 32 -80 32 -99 3 -100
-3 0 -21 38 -38 85 -29 75 -35 84 -56 83 -13 -1 -24 -6 -24 -10 0 -4 -6 -8
-12 -8 -30 -1 -39 -16 -27 -43 10 -22 15 -24 31 -16 26 14 37 -17 13 -35 -17
-12 -17 -16 -2 -53 16 -41 14 -53 -9 -53 -10 0 -31 46 -91 196 -4 11 55 38 82
39 6 0 12 3 15 6 8 11 73 37 93 38 9 1 17 -6 17 -14z m1037 -66 c38 -38 164
-356 163 -411 0 -48 -37 -91 -96 -114 -56 -21 -113 -8 -143 35 -35 49 -151
355 -151 398 0 72 60 123 146 123 44 0 56 -4 81 -31z m-1305 -65 c10 -21 9
-27 -3 -34 -10 -7 -19 -3 -31 13 -24 31 -34 13 -18 -31 28 -79 41 -102 56
-102 20 0 9 37 -18 64 -16 15 -17 20 -6 27 27 18 45 9 57 -29 18 -55 11 -85
-22 -96 -18 -7 -33 -7 -44 0 -16 10 -72 137 -72 166 -2 49 81 67 101 22z m998
-51 c23 -21 48 -71 97 -193 76 -190 83 -230 53 -278 -22 -35 -88 -71 -130 -72
-38 0 -87 35 -108 77 -11 21 -45 102 -76 181 -60 153 -69 209 -40 251 46 65
150 82 204 34z m-461 -159 c38 -22 44 -34 117 -218 87 -220 86 -273 -10 -317
-70 -32 -134 -19 -169 34 -25 39 -139 335 -144 376 -3 24 1 49 11 69 32 61
136 91 195 56z m-285 -136 c24 -24 51 -80 99 -202 69 -174 77 -217 52 -265
-17 -33 -87 -71 -131 -71 -42 0 -90 33 -112 77 -42 83 -132 334 -132 368 0 69
65 124 149 125 36 0 48 -6 75 -32z m-307 -105 c12 -8 31 -34 43 -57 30 -62 26
-142 -10 -246 -30 -84 -38 -144 -21 -155 5 -3 43 8 83 24 l73 29 17 -36 c9
-20 14 -40 10 -43 -9 -8 -218 -89 -230 -89 -17 0 -46 94 -46 150 0 36 10 82
28 132 23 62 28 89 24 133 -6 72 -34 105 -73 87 -29 -13 -31 -34 -10 -86 l16
-37 -35 -14 c-20 -8 -39 -15 -44 -15 -10 0 -42 92 -42 122 0 24 23 70 44 87
47 39 125 45 173 14z m-1103 -839 c9 -3 16 -17 16 -30 0 -13 9 -33 20 -44 19
-19 33 -20 283 -20 251 0 264 1 285 20 12 12 22 31 22 44 0 31 16 36 86 27 43
-6 63 -14 80 -34 25 -30 36 -96 25 -152 -5 -22 -9 -33 -10 -24 -1 11 -33 25
-118 48 -278 76 -461 78 -713 8 -77 -22 -123 -38 -134 -48 -20 -18 -26 -7 -26
46 0 61 17 112 45 135 9 8 38 17 64 21 25 3 49 7 53 8 3 0 13 -2 22 -5z m444
-129 c104 -8 295 -74 365 -127 14 -10 17 -21 11 -42 -3 -15 -9 -23 -13 -18 -8
13 -111 56 -181 76 -101 28 -242 39 -355 26 -152 -16 -246 -47 -448 -148 -4
-2 -7 20 -5 49 l3 54 60 32 c129 69 349 119 465 107 14 -2 58 -6 98 -9z m-208
-309 c137 -30 234 -80 334 -175 85 -80 159 -214 186 -331 15 -68 12 -238 -5
-305 -21 -84 -89 -215 -134 -259 -49 -47 -59 -34 -20 25 173 256 123 612 -116
825 -68 61 -191 127 -280 149 -87 22 -239 20 -317 -5 -34 -11 -64 -20 -65 -20
-2 0 -3 11 -3 24 0 21 9 27 63 45 127 43 243 51 357 27z m-2094 -150 c3 -8 4
-23 2 -32 -3 -17 -4 -17 -20 0 -24 23 -23 4 1 -35 l19 -31 7 51 c8 59 34 73
36 19 l1 -33 11 28 c6 15 17 27 24 27 16 0 16 -5 2 -70 -15 -69 -5 -74 16 -8
21 64 26 71 49 62 16 -6 17 -15 11 -78 -4 -39 -9 -73 -12 -76 -2 -3 -12 4 -20
15 -11 14 -17 16 -20 8 -5 -15 -33 -18 -33 -4 0 5 -8 7 -18 4 -16 -4 -18 1
-14 34 2 29 1 34 -7 23 -6 -8 -11 -23 -11 -32 0 -10 -7 -18 -15 -18 -8 0 -15
5 -15 11 0 8 -4 8 -15 -1 -26 -22 -77 13 -59 41 8 14 24 11 24 -6 0 -8 5 -15
10 -15 15 0 12 23 -5 46 -28 37 -13 84 27 84 10 0 21 -6 24 -14z m247 -43 c10
-6 9 -47 -2 -58 -5 -6 -5 -19 -1 -30 5 -15 9 -7 15 33 6 45 10 52 30 52 52 0
62 -74 13 -98 -17 -8 -28 -21 -28 -33 0 -27 -30 -24 -31 4 l-1 22 -6 -22 c-10
-33 -37 -13 -28 21 4 15 2 26 -4 26 -5 0 -10 -11 -10 -24 0 -14 -5 -28 -10
-31 -18 -11 -22 24 -10 90 12 63 13 65 39 59 14 -4 29 -9 34 -11z m158 -60 l1
-38 10 33 c6 17 17 32 24 32 8 0 14 -3 14 -8 0 -4 15 -7 33 -7 29 0 32 -3 36
-35 l4 -35 6 29 c8 40 31 46 31 9 0 -15 -4 -45 -9 -65 -5 -21 -5 -38 -1 -38 5
0 11 14 14 30 3 17 9 44 12 60 3 17 12 30 20 30 8 0 14 -3 14 -8 0 -4 15 -7
33 -7 28 0 32 -4 35 -27 4 -32 -24 -41 -31 -10 -2 9 -8 -3 -14 -28 -11 -49 -5
-77 9 -40 11 30 33 12 23 -19 -8 -26 -60 -30 -69 -4 -5 12 -9 14 -18 5 -19
-19 -46 -14 -59 10 -8 14 -14 18 -17 10 -5 -17 -61 -15 -68 3 -3 8 -1 36 4 62
15 67 8 65 -15 -4 -29 -85 -47 -78 -51 20 -2 64 0 77 13 77 11 0 15 -11 16
-37z m321 -57 c-3 -19 0 -26 7 -22 6 4 11 16 11 27 0 27 30 24 31 -3 1 -17 2
-19 6 -5 5 18 57 25 67 8 3 -5 14 -7 24 -4 10 2 28 -4 41 -14 19 -16 21 -22
12 -46 -6 -16 -11 -44 -11 -63 0 -24 -5 -34 -15 -34 -10 0 -15 11 -16 38 l-1
37 -11 -33 c-8 -27 -14 -32 -36 -28 -14 2 -37 5 -50 5 -22 1 -23 3 -18 59 l5
57 -10 -52 c-7 -36 -16 -53 -26 -53 -11 0 -13 8 -9 35 7 43 -9 47 -18 5 -9
-40 -39 -42 -31 -2 3 15 8 45 12 67 8 49 12 57 27 52 7 -2 10 -16 9 -31z
m1610 -19 c213 -104 266 -384 105 -554 -27 -29 -55 -53 -60 -53 -6 0 -1 10 11
23 60 64 85 192 58 297 -29 111 -97 193 -205 244 -57 27 -77 31 -148 31 -44 0
-79 3 -77 7 13 20 104 38 180 35 64 -3 93 -9 136 -30z m-2402 -84 c0 -10 -14
-96 -32 -191 l-32 -173 -31 7 c-16 3 -31 7 -32 8 -2 2 9 62 23 136 27 140 25
149 -20 150 -12 0 -16 5 -12 16 3 9 6 20 6 25 0 5 15 9 34 9 18 0 39 7 46 15
17 21 50 19 50 -2z m205 -38 c31 -30 32 -56 4 -202 -17 -89 -26 -116 -45 -134
-45 -42 -136 -20 -150 37 -4 13 4 82 17 152 27 148 42 172 109 172 30 0 47 -6
65 -25z m317 -65 c23 -28 23 -48 -3 -188 -26 -139 -45 -167 -109 -166 -55 2
-90 34 -90 83 0 45 37 236 50 261 16 31 42 41 90 36 30 -3 50 -11 62 -26z
m195 -25 c33 -23 35 -61 13 -180 -24 -128 -36 -162 -61 -175 -32 -18 -86 -11
-115 13 -33 28 -33 59 -5 206 19 95 30 124 56 143 18 13 90 9 112 -7z m210
-40 c33 -23 35 -61 13 -180 -24 -128 -36 -162 -61 -175 -32 -18 -86 -11 -115
13 -33 28 -33 59 -5 206 19 95 30 124 56 143 18 13 90 9 112 -7z m-1451 -507
c106 5 131 -11 29 -18 l-80 -6 83 -2 c47 -1 82 -6 82 -12 0 -5 -9 -10 -20 -10
-19 0 -20 -7 -20 -115 0 -108 1 -115 20 -115 11 0 20 -7 20 -15 0 -8 -9 -15
-20 -15 -17 0 -20 -7 -20 -42 -1 -24 -9 -67 -19 -95 -17 -51 -17 -53 1 -53 22
0 23 -9 2 -38 -9 -13 -26 -22 -42 -22 -15 0 -56 -9 -90 -20 -80 -25 -133 -25
-211 -1 -33 10 -58 15 -55 10 3 -5 1 -9 -3 -9 -15 0 -65 53 -78 83 l-12 29
-124 1 -124 1 115 3 115 4 -3 229 -4 230 86 0 c105 0 115 -18 14 -23 l-73 -3
78 -2 c43 -1 77 -6 77 -12 0 -5 -6 -10 -14 -10 -21 0 -26 -23 -26 -108 0 -90
7 -122 26 -122 8 0 14 -7 14 -15 0 -8 -7 -15 -15 -15 -11 0 -15 -12 -15 -49 0
-61 33 -105 88 -121 53 -14 73 -12 35 5 -18 8 -33 15 -33 17 0 2 21 3 46 3 38
1 51 6 71 29 l24 29 -3 203 c-2 113 -2 201 -1 197 2 -5 37 -7 79 -5z m575 -12
c24 -13 43 -28 42 -34 -2 -6 10 -21 25 -34 36 -30 82 -98 82 -120 0 -15 -9
-18 -57 -18 -55 0 -60 2 -87 36 -83 105 -233 89 -290 -30 -22 -46 -20 -66 4
-66 26 0 26 -20 -1 -27 -18 -5 -20 -11 -16 -39 13 -76 89 -135 174 -133 l48 1
-48 8 c-69 12 -70 20 -2 20 54 0 60 3 97 40 l40 40 87 -2 86 -2 -80 -6 -80 -6
63 -2 c34 -1 62 -6 62 -10 0 -4 -13 -29 -30 -55 -27 -43 -28 -47 -10 -47 11 0
20 -4 20 -9 0 -16 -56 -51 -82 -51 -12 0 -45 -7 -72 -15 -63 -19 -153 -19
-211 0 -25 9 -49 14 -54 11 -17 -11 -87 53 -121 110 -34 56 -35 62 -35 154 1
102 15 145 69 202 77 81 138 107 252 108 67 0 89 -4 125 -24z m899 4 c0 -5
-68 -11 -152 -13 l-153 -3 163 -2 c90 -1 162 -6 162 -11 0 -5 -5 -11 -11 -13
-14 -5 67 -128 85 -128 8 0 18 5 22 12 4 7 3 8 -4 4 -8 -4 -12 0 -12 11 0 11
-6 25 -12 32 -11 11 -10 13 0 7 15 -9 27 3 70 67 l33 47 94 0 c125 0 127 -19
3 -22 l-93 -2 93 -3 c56 -2 90 -8 87 -13 -4 -6 -17 -10 -30 -10 -18 0 -36 -21
-89 -104 -69 -109 -76 -126 -50 -126 14 0 14 -3 4 -15 -7 -8 -21 -15 -31 -15
-19 0 -24 -25 -22 -120 1 -63 3 -70 18 -70 10 0 15 -10 15 -30 0 -20 -5 -30
-15 -30 -8 0 -15 -4 -15 -10 0 -15 -127 -13 -133 3 -3 6 -6 -1 -6 -16 -1 -16
-5 -26 -11 -22 -6 4 -10 64 -10 147 l0 141 -32 51 c-18 28 -49 74 -69 101 -20
28 -39 61 -43 75 -4 14 25 -24 64 -84 39 -60 74 -106 77 -102 3 3 -25 54 -63
113 -92 143 -97 144 -211 13 -45 -52 -82 -102 -83 -111 0 -9 9 -19 21 -22 15
-4 19 -11 15 -24 -8 -26 103 -187 133 -191 26 -4 62 -53 43 -60 -7 -2 -9 -8
-6 -14 4 -6 -25 -8 -79 -6 -78 3 -84 2 -76 -14 6 -11 6 -18 0 -18 -11 0 -143
201 -136 208 6 6 4 9 44 -51 18 -27 35 -46 38 -43 9 9 -78 136 -93 136 -8 0
-29 -17 -49 -37 -40 -44 -48 -97 -16 -106 14 -3 17 -11 14 -31 -3 -14 -12 -26
-19 -26 -8 0 -14 -4 -14 -10 0 -6 -26 -10 -59 -10 -43 0 -60 -4 -65 -15 -3 -8
-10 -15 -16 -15 -7 0 -10 102 -10 305 l0 305 85 0 c104 0 114 -18 13 -23 l-73
-3 78 -2 c43 -1 77 -6 77 -12 0 -5 -7 -10 -15 -10 -13 0 -15 -16 -13 -107 2
-85 6 -108 17 -108 8 0 15 9 16 21 2 23 41 77 127 173 32 35 56 66 54 70 -2 3
70 5 160 3 92 -2 164 -7 164 -12z m952 -15 c46 -16 82 -44 41 -31 -13 4 -5 -9
23 -38 39 -41 74 -118 74 -163 0 -8 7 -16 15 -19 19 -8 20 -30 1 -37 -7 -3
-16 -26 -19 -52 -4 -26 -16 -67 -26 -91 -16 -36 -17 -44 -5 -44 20 0 18 -14
-6 -35 -30 -28 -97 -37 -302 -42 -154 -4 -188 -7 -188 -19 0 -8 -4 -14 -10
-14 -6 0 -10 109 -10 306 l0 306 183 -5 c137 -3 194 -9 229 -22z m555 10 c28
-8 62 -24 75 -36 22 -19 22 -20 1 -10 -19 10 -17 5 12 -39 32 -48 55 -136 40
-160 -3 -5 1 -13 9 -16 21 -8 20 -23 -1 -31 -10 -4 -36 -21 -57 -39 -21 -19
-54 -38 -72 -44 -20 -7 -34 -18 -34 -28 0 -19 58 -82 76 -82 16 0 64 -61 58
-72 -3 -4 -36 -8 -73 -8 -74 0 -113 14 -151 55 -20 21 -21 25 -6 25 14 0 11 8
-15 45 -22 31 -40 45 -56 45 -21 0 -23 -5 -23 -45 0 -33 4 -45 15 -45 10 0 15
-10 15 -30 0 -20 -5 -30 -15 -30 -8 0 -15 -4 -15 -10 0 -6 -27 -10 -61 -10
-47 0 -65 -4 -75 -17 -11 -15 -13 32 -14 290 l0 307 158 0 c112 0 173 -4 209
-15z m508 5 c3 -5 -26 -11 -72 -13 l-78 -3 83 -2 c45 -1 82 -6 82 -11 0 -5 -5
-11 -11 -13 -16 -5 68 -209 94 -230 15 -13 18 -20 10 -25 -16 -11 47 -167 81
-198 27 -25 30 -33 20 -59 -8 -20 -139 -23 -148 -3 -3 6 -4 -1 -2 -16 4 -34
-5 -26 -20 16 l-11 32 -99 3 c-71 2 -102 -1 -109 -10 -22 -28 -58 -38 -130
-38 -41 0 -75 2 -75 5 0 3 27 72 59 153 33 81 83 205 111 276 28 71 53 133 56
138 7 11 152 10 159 -2z m685 0 c0 -5 -30 -11 -67 -13 l-68 -3 73 -2 c39 -1
72 -6 72 -11 0 -5 -5 -11 -10 -13 -14 -4 55 -210 76 -225 10 -7 13 -19 10 -31
-9 -27 3 -52 25 -52 13 0 19 7 18 23 0 21 -1 21 -9 2 -17 -41 -9 12 28 170
l37 160 98 3 c60 2 97 -1 97 -7 0 -6 -38 -12 -87 -14 l-88 -3 98 0 c53 1 97
-1 97 -4 -1 -3 -8 -16 -16 -30 -8 -14 -13 -17 -10 -7 3 11 0 17 -9 17 -18 0
-27 -17 -59 -115 -28 -85 -32 -115 -16 -115 18 0 10 -22 -9 -27 -22 -5 -22 -7
-57 -107 -28 -82 -29 -86 -9 -86 8 0 15 -6 15 -12 -1 -40 -54 -68 -129 -68
-65 1 -83 11 -105 64 -14 33 -14 37 -1 26 12 -10 15 -9 15 6 0 39 -50 169 -70
182 -11 7 -20 8 -20 3 0 -5 -8 -11 -18 -13 -11 -3 -24 -29 -39 -74 -36 -117
-36 -114 -19 -114 19 0 19 -2 4 -35 -6 -14 -17 -25 -25 -25 -7 0 -13 -4 -13
-10 0 -6 -30 -10 -70 -10 -49 0 -70 4 -70 13 0 9 -2 9 -8 -1 -6 -8 -12 0 -20
25 -8 26 -8 39 -1 44 14 8 -44 179 -65 191 -10 6 -14 18 -11 36 6 35 -56 218
-72 215 -7 -2 -13 4 -13 12 0 12 17 15 95 15 52 0 95 -4 95 -9 0 -5 -5 -11
-12 -13 -17 -6 40 -228 58 -228 8 0 14 -7 14 -15 0 -8 -4 -15 -9 -15 -14 0 0
-51 16 -57 15 -6 33 13 32 32 0 6 -3 4 -6 -2 -2 -7 -9 -13 -13 -13 -7 0 46
171 105 338 5 14 145 17 145 2z"/>
<path d="M7919 5161 l-23 -19 53 -138 c86 -221 87 -224 114 -224 27 0 47 17
47 40 0 8 -28 87 -62 174 -70 176 -88 200 -129 167z"/>
<path d="M7618 5049 c-10 -5 -18 -17 -18 -27 0 -30 132 -353 147 -359 21 -8
63 14 63 33 0 24 -120 326 -138 347 -17 19 -29 21 -54 6z"/>
<path d="M7318 4929 c-10 -5 -18 -19 -18 -30 0 -25 118 -330 135 -348 17 -18
62 -7 69 17 6 17 -102 306 -130 350 -16 24 -30 27 -56 11z"/>
<path d="M6869 4751 l-23 -19 53 -138 c86 -221 87 -224 114 -224 27 0 47 17
47 40 0 8 -28 87 -62 174 -70 176 -88 200 -129 167z"/>
<path d="M6572 4634 c-12 -8 -22 -21 -22 -29 0 -19 125 -334 138 -347 14 -14
53 -6 65 14 8 13 -4 55 -54 184 -71 180 -88 205 -127 178z"/>
<path d="M4997 2113 c-4 -3 -7 -42 -7 -85 0 -63 3 -78 15 -78 8 0 15 -7 15
-15 0 -8 -7 -15 -15 -15 -13 0 -15 -14 -13 -82 l3 -83 70 -1 c61 -1 63 0 12 3
-71 5 -66 23 6 23 64 0 94 15 124 59 28 41 31 126 7 173 -9 18 -11 27 -4 23 7
-4 18 -21 26 -39 l13 -31 1 27 c0 38 -61 105 -108 118 -42 11 -135 13 -145 3z"/>
<path d="M5597 2103 c-4 -3 -7 -39 -7 -79 0 -82 2 -84 100 -84 70 0 100 19
101 63 0 32 0 32 11 7 9 -20 12 -22 15 -8 7 29 -20 72 -57 90 -35 18 -149 25
-163 11z"/>
<path d="M6211 1989 c-14 -40 -14 -39 4 -39 23 0 18 -19 -8 -29 -26 -10 -51
-59 -45 -88 3 -15 14 -18 68 -21 90 -3 98 4 75 64 -13 35 -20 43 -24 31 -4
-12 -11 -3 -23 31 -13 36 -14 42 -2 28 10 -14 14 -16 14 -5 -1 62 -40 81 -59
28z"/>
<path d="M4315 5116 c-30 -13 -75 -66 -57 -66 5 0 14 10 20 23 6 12 11 16 11
10 1 -7 8 -13 16 -13 19 0 20 -16 1 -23 -16 -7 -51 -67 -39 -67 5 0 1 -5 -7
-10 -9 -6 -10 -10 -3 -10 18 0 53 41 53 61 0 10 6 22 14 26 8 4 14 17 13 28
-1 12 4 20 13 20 8 0 21 7 27 15 11 13 14 12 19 -8 4 -15 12 -21 21 -18 8 3
11 1 8 -4 -3 -6 -1 -10 5 -10 6 0 8 -5 5 -10 -4 -6 -16 -8 -28 -5 -22 6 -22 5
1 -11 12 -9 22 -25 22 -36 0 -16 -3 -18 -14 -9 -10 9 -10 3 3 -24 11 -24 22
-34 35 -32 24 3 29 34 8 47 -12 6 -13 9 -3 10 8 0 4 7 -10 19 l-22 18 26 5
c22 4 27 1 28 -16 0 -14 3 -16 6 -7 9 23 -27 79 -62 95 -40 19 -70 20 -110 2z"/>
<path d="M2496 4783 c-9 -54 -20 -109 -22 -123 -5 -23 -2 -26 23 -24 63 2 71
5 97 29 21 20 26 33 26 75 0 42 -5 55 -26 75 -15 14 -35 25 -46 25 -10 0 -22
9 -26 21 -6 15 -13 -6 -26 -78z"/>
<path d="M2954 4747 l-17 -55 -36 6 c-20 3 -42 6 -50 6 -10 1 -25 -42 -52
-144 -21 -80 -38 -150 -39 -156 0 -7 16 -15 35 -18 19 -4 35 -12 35 -17 0 -7
-12 -8 -30 -4 -19 4 -46 0 -74 -10 -55 -21 -148 -9 -233 30 -33 15 -60 22 -65
17 -5 -5 -9 -28 -10 -52 -1 -65 15 -74 187 -105 83 -15 153 -30 158 -34 4 -4
-2 -34 -13 -66 -11 -33 -19 -64 -17 -69 2 -6 58 153 125 353 67 201 120 367
118 369 -3 2 -12 -21 -22 -51z"/>
<path d="M3533 4623 c-29 -20 185 -113 259 -113 24 0 23 32 -1 54 -44 40 -225
81 -258 59z"/>
<path d="M3450 4514 c0 -3 7 -12 15 -20 8 -8 12 -21 9 -29 -4 -9 0 -12 13 -9
13 4 19 -1 20 -15 2 -26 -14 -36 -32 -21 -22 19 -18 3 6 -21 20 -20 23 -66 3
-62 -5 1 -10 -7 -10 -17 0 -10 3 -17 7 -14 4 2 9 -6 11 -18 2 -13 8 -23 15
-23 6 0 14 -3 18 -7 4 -4 13 -1 20 5 11 10 10 15 -2 30 -18 19 -4 23 17 5 8
-7 4 -1 -9 15 -14 15 -19 27 -13 27 6 0 14 -4 17 -10 14 -22 25 -7 25 34 0 28
-8 55 -23 77 -29 44 -107 97 -107 73z"/>
<path d="M3864 4241 c-69 -18 -70 -18 -18 -62 65 -55 227 -132 344 -164 99
-27 290 -46 290 -28 0 20 -128 122 -220 176 -109 63 -306 102 -396 78z"/>
<path d="M1210 3300 c0 -5 6 -10 13 -10 16 0 426 -44 752 -80 168 -19 263 -26
269 -20 7 7 5 10 -5 10 -8 0 -234 25 -502 55 -530 60 -527 60 -527 45z"/>
<path d="M2630 1319 c0 -14 7 -19 30 -19 l30 0 0 -71 c0 -67 -1 -70 -22 -67
-20 3 -23 10 -26 61 -3 49 -6 57 -22 57 -18 0 -20 -7 -20 -58 0 -68 18 -92 68
-92 49 0 62 21 62 101 0 55 3 69 15 69 18 0 20 29 3 31 -7 1 -37 3 -65 5 -47
2 -53 0 -53 -17z"/>
<path d="M5382 1279 c-6 -35 -9 -65 -6 -68 2 -3 20 1 40 8 43 16 67 1 62 -38
-4 -31 -38 -40 -58 -16 -16 19 -50 20 -50 0 0 -27 38 -55 75 -55 98 0 116 147
20 154 -17 2 -31 6 -32 9 -8 21 2 27 43 27 38 0 45 3 42 18 -3 13 -15 18 -64
20 l-60 3 -12 -62z"/>
<path d="M5681 1321 c-38 -38 -41 -153 -5 -192 12 -13 30 -19 60 -19 59 0 79
30 79 118 0 57 -3 66 -28 88 -34 29 -80 31 -106 5z"/>
<path d="M5870 1322 c-18 -14 -24 -32 -28 -75 -8 -100 13 -137 79 -137 61 0
79 25 79 110 0 62 -3 74 -25 95 -29 30 -73 33 -105 7z"/>
<path d="M6055 1315 c-22 -21 -25 -33 -25 -95 0 -85 18 -110 79 -110 66 0 87
37 79 137 -4 43 -10 61 -28 75 -32 26 -76 23 -105 -7z"/>
<path d="M6341 1321 c-38 -38 -41 -153 -5 -192 26 -29 99 -26 118 4 34 54 31
153 -7 188 -27 25 -81 25 -106 0z"/>
<path d="M6525 1315 c-21 -20 -25 -34 -25 -85 0 -92 19 -120 83 -120 59 0 77
25 77 110 0 62 -3 74 -25 95 -15 16 -36 25 -55 25 -19 0 -40 -9 -55 -25z"/>
<path d="M6715 1315 c-21 -20 -25 -34 -25 -85 0 -92 19 -120 83 -120 59 0 77
25 77 110 0 62 -3 74 -25 95 -15 16 -36 25 -55 25 -19 0 -40 -9 -55 -25z"/>
<path d="M3755 993 c-11 -2 -48 -11 -82 -19 -51 -12 -74 -13 -129 -3 -52 9
-86 9 -154 -1 -72 -10 -103 -10 -170 1 -73 11 -89 11 -148 -4 -81 -21 -96 -21
-169 -2 -31 8 -73 15 -93 15 -54 0 -133 -27 -164 -55 -21 -20 -38 -25 -77 -25
l-49 0 2 -57 1 -58 6 50 6 50 70 0 c51 0 69 -3 68 -12 -2 -7 2 -13 7 -13 18 0
10 -18 -10 -23 -18 -5 -20 -14 -20 -92 0 -78 2 -87 20 -92 11 -3 20 -11 20
-18 0 -7 -9 -15 -20 -18 -17 -4 -20 -14 -20 -66 0 -47 4 -62 18 -69 14 -8 252
-23 252 -16 0 1 -6 17 -14 36 -13 31 -19 156 -17 336 l1 53 73 -3 c51 -2 71
-7 69 -15 -1 -7 2 -13 8 -13 18 0 10 -18 -10 -23 -18 -5 -20 -14 -20 -92 0
-78 2 -87 20 -92 11 -3 20 -11 20 -18 0 -7 -9 -15 -20 -18 -24 -6 -26 -34 -6
-82 17 -41 61 -66 113 -64 34 2 35 2 8 6 -43 6 -56 23 -18 23 80 0 96 34 93
189 -2 64 -2 135 -2 159 l2 43 73 -3 c51 -2 71 -7 69 -15 -1 -7 2 -13 8 -13 5
0 10 -4 10 -10 0 -5 -9 -10 -20 -10 -20 0 -21 -5 -18 -92 3 -78 6 -93 20 -96
13 -2 20 8 28 40 15 59 29 84 70 127 50 51 103 74 183 79 72 5 130 -11 177
-48 l25 -19 -25 5 -25 5 27 -21 c28 -22 68 -80 68 -99 0 -6 -18 -11 -46 -11
-37 0 -50 5 -66 25 -29 37 -70 55 -127 55 -39 0 -56 -6 -81 -26 -54 -46 -78
-114 -40 -114 13 0 18 -5 14 -15 -4 -8 -12 -15 -20 -15 -35 0 4 -85 56 -121
14 -9 41 -19 60 -22 l35 -6 -32 15 c-43 18 -42 27 1 19 39 -8 84 12 114 50 18
23 27 25 91 25 91 0 94 -19 4 -22 -64 -2 -65 -2 -15 -5 28 -2 52 -7 52 -11 0
-4 -11 -24 -25 -45 -25 -36 -25 -37 -5 -37 29 0 25 -15 -11 -41 -29 -21 -44
-22 -173 -23 -130 -1 -144 1 -181 22 -45 26 -95 103 -105 162 -4 26 -10 35
-25 35 -16 0 -21 -9 -26 -45 -4 -25 -12 -58 -18 -73 -14 -36 -15 -35 10 -39
l21 -3 -21 -26 c-16 -21 -32 -27 -88 -34 -151 -18 -253 -8 -293 30 l-27 26 -7
-24 c-8 -33 -27 -37 -203 -37 -95 0 -153 -4 -153 -10 0 -5 -7 -10 -14 -10 -10
0 -16 14 -19 43 l-4 42 1 -45 c1 -38 5 -47 27 -57 19 -9 28 -23 33 -50 3 -21
18 -60 34 -88 41 -76 71 -86 256 -88 83 -1 180 0 216 2 36 2 115 0 175 -4 104
-7 114 -6 185 20 107 38 130 40 178 16 23 -11 73 -26 111 -33 61 -10 83 -10
165 7 81 16 101 16 141 5 32 -9 70 -11 128 -5 45 4 98 7 117 6 273 -9 479 -10
510 0 19 6 56 24 81 40 57 36 64 36 95 0 14 -16 41 -35 61 -42 51 -16 284 -17
365 0 56 11 76 11 120 0 36 -9 125 -13 278 -14 191 0 236 3 297 19 71 19 73
19 135 0 54 -16 94 -19 293 -19 195 0 238 3 281 18 64 22 116 71 132 124 18
60 15 161 -7 208 -21 47 -83 105 -112 105 -11 0 -31 11 -44 25 -21 20 -25 34
-25 79 0 71 -17 152 -42 196 -45 82 -154 115 -288 86 -76 -16 -84 -16 -161 0
-77 17 -85 17 -168 0 -80 -16 -90 -16 -146 -1 -93 25 -244 30 -359 11 -91 -15
-107 -15 -215 0 -83 12 -138 14 -196 8 -127 -12 -471 -14 -575 -2 -78 9 -114
8 -196 -5 -77 -13 -115 -14 -160 -7 -32 6 -106 8 -164 4 -78 -4 -121 -2 -170
10 -63 15 -114 18 -155 9z m335 -120 c0 -7 5 -13 10 -13 6 0 10 -4 10 -10 0
-5 -9 -10 -20 -10 -20 0 -21 -5 -18 -87 3 -74 6 -88 21 -91 12 -2 17 3 17 17
0 25 44 87 112 159 l50 52 128 0 c124 0 128 -1 144 -24 13 -20 13 -25 2 -28
-10 -2 -4 -18 20 -55 36 -56 65 -71 57 -30 -3 17 8 41 38 80 l42 57 78 0 c76
0 79 -1 75 -22 -2 -16 -12 -25 -31 -28 -22 -4 -39 -23 -81 -89 -58 -91 -62
-101 -39 -101 9 0 12 -6 9 -15 -4 -8 -17 -15 -30 -15 -23 0 -24 -2 -24 -80 0
-73 2 -80 20 -80 15 0 20 -7 20 -25 0 -31 -31 -45 -95 -45 -26 0 -45 -5 -48
-12 -11 -33 -18 10 -18 118 1 110 -1 121 -25 159 -18 29 -19 34 -4 16 38 -44
30 -16 -16 60 -88 142 -101 144 -202 25 -40 -47 -72 -89 -72 -95 0 -6 9 -11
19 -11 24 0 38 -19 22 -29 -8 -5 1 -27 28 -67 55 -82 66 -94 84 -94 9 0 24
-12 33 -26 24 -35 6 -45 -74 -42 -47 2 -61 0 -57 -9 2 -7 1 -13 -4 -13 -10 0
-98 130 -106 156 -5 14 -1 12 12 -5 59 -80 75 -76 21 5 -42 62 -66 67 -101 20
-33 -42 -36 -86 -7 -86 12 0 20 -7 20 -17 0 -35 -18 -46 -77 -51 -32 -3 -61
-10 -65 -16 -18 -28 -21 14 -19 301 l1 211 70 -1 c50 -1 70 -5 70 -14z m1786
-10 c3 -15 -1 -23 -11 -23 -9 0 -15 -9 -15 -25 0 -25 0 -25 -96 -25 -119 0
-134 -7 -134 -63 0 -24 5 -48 12 -55 7 -7 45 -12 98 -12 47 0 95 -3 108 -6 25
-7 31 -34 7 -34 -8 0 -15 -4 -15 -10 0 -6 -38 -10 -93 -10 -59 0 -97 -4 -105
-12 -7 -7 -12 -30 -12 -53 0 -23 5 -46 12 -53 8 -8 47 -12 108 -12 125 0 140
-5 140 -41 0 -37 -22 -41 -213 -37 -113 2 -147 0 -147 -9 0 -7 -3 -13 -7 -13
-6 0 -9 431 -4 500 1 13 28 15 182 15 181 0 182 0 185 -22z m345 6 c8 -16 8
-23 -1 -29 -14 -9 57 -190 76 -190 15 0 26 -28 13 -32 -16 -5 38 -138 66 -164
48 -44 21 -70 -65 -62 -29 2 -40 0 -43 -12 -4 -16 -6 -13 -21 33 -8 25 -173
26 -191 0 -9 -12 -32 -18 -81 -21 -38 -3 -72 -9 -76 -15 -4 -6 -10 -8 -13 -5
-4 4 39 122 95 262 l103 256 63 0 c54 0 65 -3 75 -21z m345 -6 c3 -15 -1 -23
-11 -23 -12 0 -15 -17 -15 -95 0 -78 3 -95 15 -95 8 0 15 -7 15 -15 0 -8 -7
-15 -15 -15 -12 0 -15 -14 -15 -65 0 -80 7 -85 127 -85 113 0 133 -6 133 -36
0 -39 -28 -45 -197 -42 -131 3 -160 0 -170 -12 -10 -12 -12 38 -13 241 0 141
3 259 7 263 4 4 36 6 72 4 58 -3 64 -5 67 -25z m-1213 2 c37 -15 63 -40 30
-28 -13 4 -11 -1 8 -23 34 -37 54 -79 63 -126 4 -24 13 -38 21 -38 8 0 15 -7
15 -15 0 -8 -6 -15 -14 -15 -9 0 -16 -16 -20 -43 -4 -24 -16 -60 -26 -80 -20
-37 -20 -37 0 -37 30 0 24 -16 -16 -40 -33 -21 -48 -22 -220 -24 -140 -1 -184
-4 -184 -13 0 -7 -4 -13 -9 -13 -5 0 -8 113 -8 255 l1 255 162 0 c120 0 171
-4 197 -15z"/>
<path d="M5120 720 c0 -56 3 -70 15 -70 8 0 15 -7 15 -15 0 -8 -7 -15 -15 -15
-12 0 -15 -14 -15 -70 l0 -70 73 2 72 1 -60 6 -60 6 58 7 c32 4 69 14 82 22
31 20 49 77 42 135 -4 45 -4 45 9 16 12 -27 13 -28 14 -7 0 35 -28 81 -63 102
-23 15 -50 20 -99 20 l-68 0 0 -70z"/>
</g>
</svg>
